<svg width="774" height="295" viewBox="0 0 774 295" fill="none" xmlns="http://www.w3.org/2000/svg">
<path d="M49.9999 86L80.4999 86L80.9999 154.5L99.9999 173.5L101 173.5L120 154.5L120 74C120 44 99.5 35 75.4999 35C51.4999 35 34.9999 45.5 34.9999 72L34.9999 216C34.9999 249.5 50.9999 259.5 78.4999 259.5C106 259.5 116.259 246.962 120 212.5L150.5 212.5L150.5 235C150.5 274 113 291 75.9999 291C38.9999 291 4.00002 282.5 4.00002 235L4.00003 72C4.00004 26.5 42.4999 3.49999 80.4999 3.49999C118.5 3.5 150.5 29.5 150.5 72L150.5 165C150.5 165 116 202 109.5 208.5C103 215 98.9999 215 91.4999 208.5C83.9999 202 49.9999 165 49.9999 165L49.9999 86Z" fill="#292929" stroke="#F5F5F5" stroke-width="7"/>
<path d="M280.54 165.58L298.18 167.96C294.68 185.04 280.12 203.24 253.8 203.24C225.66 203.24 206.06 183.5 206.06 151.02C206.06 118.68 225.66 98.8 253.8 98.8C277.46 98.8 292.02 114.06 296.64 127.64L279.28 131C275.64 121.48 267.1 113.5 253.8 113.5C236.02 113.5 224.12 126.8 224.12 151.02C224.12 175.38 236.02 188.68 253.8 188.68C269.48 188.68 277.74 177.76 280.54 165.58ZM307.135 99.64H323.515V201H307.135V99.64ZM335.162 99.64H351.542V115.74H335.162V99.64ZM335.162 127.08H351.542V201H335.162V127.08ZM402.109 202.82C391.749 202.82 384.049 199.04 379.849 192.6H379.289V226.76H362.909V127.08H378.589V136.6H379.149C383.349 129.18 391.749 125.4 401.969 125.4C421.289 125.4 435.149 140.66 435.149 164.04C435.149 187.56 421.289 202.82 402.109 202.82ZM398.329 138.28C386.149 138.28 378.309 147.8 378.309 164.04C378.309 180.42 386.149 189.8 398.329 189.8C410.649 189.8 418.489 180.42 418.489 164.04C418.489 147.8 410.649 138.28 398.329 138.28ZM483.32 202.82C472.96 202.82 465.26 199.04 461.06 192.6H460.5V226.76H444.12V127.08H459.8V136.6H460.36C464.56 129.18 472.96 125.4 483.18 125.4C502.5 125.4 516.36 140.66 516.36 164.04C516.36 187.56 502.5 202.82 483.32 202.82ZM479.54 138.28C467.36 138.28 459.52 147.8 459.52 164.04C459.52 180.42 467.36 189.8 479.54 189.8C491.86 189.8 499.7 180.42 499.7 164.04C499.7 147.8 491.86 138.28 479.54 138.28ZM525.611 99.64H541.991V115.74H525.611V99.64ZM525.611 127.08H541.991V201H525.611V127.08ZM569.038 136.74L569.598 136.88C575.058 128.9 583.178 125.4 592.698 125.4C606.278 125.4 618.878 133.38 618.878 152.14V201H602.498V156.76C602.498 143.6 597.038 138.84 587.098 138.84C578.278 138.84 569.738 146.26 569.738 160.54V201H553.358V127.08H569.038V136.74ZM698.254 127.08V195.68C698.254 219.76 682.574 228.58 662.974 228.58C646.454 228.58 632.874 221.72 628.254 204.78L644.214 201.98C646.874 212.06 653.454 215.7 662.974 215.7C674.734 215.7 681.874 209.68 681.874 195.12V187.98H681.314C677.254 193.58 669.834 197.22 659.754 197.22C640.994 197.22 627.274 183.08 627.274 161.24C627.274 139.68 640.994 125.4 659.894 125.4C669.834 125.4 677.954 128.9 682.154 135.62H682.714V127.08H698.254ZM663.534 184.48C675.294 184.48 682.994 175.1 682.994 161.24C682.994 147.52 675.294 138.28 663.534 138.28C651.634 138.28 644.074 147.52 644.074 161.24C644.074 175.1 651.634 184.48 663.534 184.48ZM768.864 146.68L753.884 149.34C751.924 141.08 745.204 137.16 737.644 137.16C729.664 137.16 724.204 140.66 724.204 147.1C724.204 153.12 730.224 154.66 737.924 156.06L745.344 157.18C758.224 159.42 770.684 163.34 770.684 179.44C770.684 195.12 756.684 202.82 738.344 202.82C719.164 202.82 706.844 193.44 704.324 179.58L719.444 176.92C721.684 186.72 728.684 191.06 738.624 191.06C747.584 191.06 753.884 187 753.884 180C753.884 173.98 747.724 171.88 739.044 170.34L731.344 169.08C719.724 167.12 707.544 163.06 707.544 147.52C707.544 134.36 720.424 125.4 737.644 125.4C754.304 125.4 766.904 134.92 768.864 146.68Z" fill="#292929"/>
</svg>
